<svg xmlns="http://www.w3.org/2000/svg" viewBox="0 0 47 47" width="47" height="47">
	<style>
		tspan { white-space:pre }
		.shp0 { fill: #cccccc } 
	</style>
	<g id="1">
		<g id="плажка">
			<g id="3">
				<path id="Browsers" class="shp0" d="M13.77 13.38C13.2 13.38 12.72 13.85 12.72 14.43C12.72 15.01 13.2 15.48 13.77 15.48C14.35 15.48 14.82 15.01 14.82 14.43C14.82 13.85 14.35 13.38 13.77 13.38ZM32.67 13.38L17.97 13.38C17.4 13.38 16.92 13.85 16.92 14.43C16.92 15.01 17.4 15.48 17.97 15.48L32.67 15.48C33.25 15.48 33.72 15.01 33.72 14.43C33.72 13.85 33.25 13.38 32.67 13.38ZM35.82 17.58L2.22 17.58L2.22 13.38C2.22 12.22 3.17 11.28 4.32 11.28L33.72 11.28C34.88 11.28 35.82 12.22 35.82 13.38L35.82 17.58ZM35.82 42.78C35.82 43.94 34.88 44.88 33.72 44.88L4.32 44.88C3.17 44.88 2.22 43.94 2.22 42.78L2.22 19.68L35.82 19.68L35.82 42.78ZM33.72 9.18L4.32 9.18C2.01 9.18 0.12 11.06 0.12 13.38L0.12 42.78C0.12 45.1 2.01 46.98 4.32 46.98L33.72 46.98C36.04 46.98 37.92 45.1 37.92 42.78L37.92 13.38C37.92 11.06 36.04 9.18 33.72 9.18ZM42.12 0.78L12.72 0.78C10.41 0.78 8.52 2.66 8.52 4.98L8.52 6.03C8.52 6.61 9 7.08 9.57 7.08C10.15 7.08 10.62 6.61 10.62 6.03L10.62 4.98C10.62 3.82 11.57 2.88 12.72 2.88L42.12 2.88C43.28 2.88 44.22 3.82 44.22 4.98L44.22 34.38C44.22 35.54 43.28 36.48 42.12 36.48L41.07 36.48C40.5 36.48 40.02 36.95 40.02 37.53C40.02 38.11 40.5 38.58 41.07 38.58L42.12 38.58C44.44 38.58 46.32 36.7 46.32 34.38L46.32 4.98C46.32 2.66 44.44 0.78 42.12 0.78ZM5.37 13.38C4.8 13.38 4.32 13.85 4.32 14.43C4.32 15.01 4.8 15.48 5.37 15.48C5.95 15.48 6.42 15.01 6.42 14.43C6.42 13.85 5.95 13.38 5.37 13.38ZM9.57 13.38C9 13.38 8.52 13.85 8.52 14.43C8.52 15.01 9 15.48 9.57 15.48C10.15 15.48 10.62 15.01 10.62 14.43C10.62 13.85 10.15 13.38 9.57 13.38Z" />
			</g>
		</g>
	</g>
</svg>