<svg xmlns="http://www.w3.org/2000/svg" viewBox="0 0 47 47" width="47" height="47">
	<style>
		tspan { white-space:pre }
		.shp0 { fill: #cccccc } 
	</style>
	<g id="1">
		<g id="плажка">
			<g id="1">
				<path id="Rocket" class="shp0" d="M28.78 25.31C29.36 25.31 29.83 24.84 29.83 24.26C29.83 23.68 29.36 23.21 28.78 23.21C28.2 23.21 27.73 23.68 27.73 24.26C27.73 24.84 28.2 25.31 28.78 25.31ZM35.73 22.9C35.31 23.32 34.66 24 33.9 24.8C32.55 26.21 30.47 28.39 29.23 29.53L17.23 17.52C18.37 16.29 20.54 14.21 21.96 12.85C22.75 12.09 23.44 11.44 23.85 11.03C29.53 5.34 40.45 2.23 44.53 2.21C44.53 5.61 41.66 16.97 35.73 22.9ZM27.76 31.26C27 34.06 25.99 36.63 24.87 38.69C24.4 37.44 23.75 36.04 22.81 34.57C22.42 33.95 21.74 33.6 21.04 33.6C20.87 33.6 20.7 33.62 20.54 33.66C20.13 33.76 19.71 33.81 19.3 33.81C17.75 33.81 16.25 33.12 14.94 31.81C13.28 30.15 12.62 28.16 13.1 26.22C13.31 25.34 12.94 24.43 12.19 23.95C10.71 23.01 9.31 22.35 8.07 21.89C10.13 20.77 12.69 19.76 15.5 18.99C15.55 18.98 15.6 18.94 15.65 18.92L27.84 31.1C27.82 31.16 27.78 31.2 27.76 31.26ZM46.26 0.47C46.02 0.23 45.43 0.11 44.58 0.11C40.14 0.11 28.56 3.34 22.37 9.54C20.9 11 16.07 15.46 14.94 16.97C11.31 17.96 6.01 19.95 3.06 22.9C3.06 22.9 6.66 22.92 11.06 25.72C10.42 28.32 11.23 31.07 13.46 33.3C15.19 35.03 17.24 35.91 19.3 35.91C19.88 35.91 20.46 35.84 21.04 35.7C23.84 40.09 23.85 43.69 23.85 43.69C26.8 40.74 28.79 35.45 29.79 31.81C31.3 30.69 35.75 25.85 37.21 24.39C44.6 17.01 47.74 1.95 46.26 0.47ZM35.08 10.61C35.66 10.61 36.13 11.08 36.13 11.66C36.13 12.24 35.66 12.71 35.08 12.71C34.5 12.71 34.03 12.24 34.03 11.66C34.03 11.08 34.5 10.61 35.08 10.61ZM35.08 14.81C36.82 14.81 38.23 13.4 38.23 11.66C38.23 9.92 36.82 8.51 35.08 8.51C33.34 8.51 31.93 9.92 31.93 11.66C31.93 13.4 33.34 14.81 35.08 14.81ZM25.63 22.16C26.21 22.16 26.68 21.69 26.68 21.11C26.68 20.53 26.21 20.06 25.63 20.06C25.05 20.06 24.58 20.53 24.58 21.11C24.58 21.69 25.05 22.16 25.63 22.16ZM22.48 16.91C21.9 16.91 21.43 17.38 21.43 17.96C21.43 18.54 21.9 19.01 22.48 19.01C23.06 19.01 23.53 18.54 23.53 17.96C23.53 17.38 23.06 16.91 22.48 16.91ZM4.2 42.55L8 33.03C8.51 33.98 9.14 34.88 9.89 35.71C11.01 36.96 12.31 37.99 13.71 38.76L4.2 42.55ZM8.58 25.91L0.44 46.31L20.85 38.17C20.48 38.22 20.12 38.23 19.76 38.23C13.52 38.23 7.86 32.2 8.58 25.91Z" />
			</g>
		</g>
	</g>
</svg>