<svg xmlns="http://www.w3.org/2000/svg" viewBox="0 0 47 34" width="47" height="34">
	<style>
		tspan { white-space:pre }
		.shp0 { fill: #cccccc } 
	</style>
	<g id="1">
		<g id="плажка">
			<g id="4">
				<path id="Paper Dollars 1" class="shp0" d="M25.33 22.65C25.16 22.52 24.98 22.42 24.77 22.35C24.56 22.27 24.47 22.2 24.26 22.15L24.26 25.47C24.76 25.43 25.06 25.29 25.38 25.02C25.71 24.76 25.87 24.34 25.87 23.77C25.87 23.51 25.82 23.28 25.72 23.1C25.62 22.92 25.49 22.77 25.33 22.65ZM21.94 18.76C21.94 18.99 21.98 19.19 22.08 19.35C22.17 19.51 22.29 19.65 22.44 19.76C22.58 19.88 22.75 19.97 22.94 20.04C23.14 20.11 23.21 20.17 23.41 20.22L23.41 17.36C22.9 17.36 22.63 17.47 22.35 17.69C22.07 17.9 21.94 18.26 21.94 18.76ZM27.21 24.94C27.04 25.33 26.8 25.66 26.5 25.92C26.2 26.18 25.85 26.38 25.45 26.52C25.04 26.66 24.73 26.74 24.26 26.76L24.26 27.73L23.41 27.73L23.41 26.76C22.9 26.75 22.56 26.67 22.13 26.51C21.71 26.36 21.35 26.15 21.05 25.86C20.75 25.58 20.51 25.24 20.35 24.83C20.18 24.42 20.11 23.95 20.12 23.42L21.72 23.42C21.71 24.04 21.85 24.54 22.13 24.9C22.41 25.26 22.76 25.45 23.41 25.47L23.41 22.02C23.02 21.91 22.76 21.79 22.38 21.64C22 21.49 21.66 21.3 21.35 21.07C21.04 20.84 20.8 20.54 20.61 20.19C20.42 19.84 20.33 19.4 20.33 18.88C20.33 18.42 20.41 18.02 20.59 17.67C20.76 17.32 21 17.03 21.29 16.8C21.59 16.57 21.93 16.39 22.32 16.26C22.7 16.14 22.99 16.08 23.41 16.08L23.41 15.14L24.26 15.14L24.26 16.08C24.68 16.08 24.96 16.14 25.33 16.25C25.71 16.36 26.04 16.54 26.31 16.76C26.59 16.99 26.81 17.28 26.98 17.63C27.14 17.99 27.22 18.4 27.22 18.86L25.62 18.86C25.6 18.38 25.47 18.01 25.24 17.75C25.01 17.49 24.76 17.36 24.26 17.36L24.26 20.38C24.68 20.49 24.97 20.62 25.38 20.78C25.78 20.93 26.14 21.12 26.45 21.36C26.76 21.6 27.01 21.89 27.19 22.25C27.38 22.6 27.48 23.03 27.48 23.55C27.48 24.08 27.39 24.54 27.21 24.94ZM23.82 13.03C19.19 13.03 15.42 16.8 15.42 21.43C15.42 26.08 19.19 29.84 23.82 29.84C28.46 29.84 32.22 26.08 32.22 21.43C32.22 16.8 28.46 13.03 23.82 13.03ZM12.27 13.03L10.17 13.03C9.59 13.03 9.12 13.51 9.12 14.08C9.12 14.67 9.59 15.14 10.17 15.14L12.27 15.14C12.86 15.14 13.32 14.67 13.32 14.08C13.32 13.51 12.86 13.03 12.27 13.03ZM37.47 27.74L35.37 27.74C34.79 27.74 34.32 28.2 34.32 28.79C34.32 29.37 34.79 29.84 35.37 29.84L37.47 29.84C38.06 29.84 38.52 29.37 38.52 28.79C38.52 28.2 38.06 27.74 37.47 27.74ZM43.77 13.03C43.19 13.03 42.72 12.57 42.72 11.98C42.72 11.4 43.19 10.93 43.77 10.93C44.36 10.93 44.82 11.4 44.82 11.98C44.82 12.57 44.36 13.03 43.77 13.03ZM44.82 27.93C44.49 27.81 44.15 27.74 43.77 27.74C42.03 27.74 40.62 29.14 40.62 30.88C40.62 31.26 40.7 31.6 40.82 31.94L6.83 31.94C6.95 31.6 7.02 31.26 7.02 30.88C7.02 29.14 5.61 27.74 3.87 27.74C3.5 27.74 3.16 27.81 2.82 27.93L2.82 14.94C3.16 15.06 3.5 15.14 3.87 15.14C5.61 15.14 7.02 13.73 7.02 11.98C7.02 11.61 6.95 11.27 6.83 10.93L40.82 10.93C40.7 11.27 40.62 11.61 40.62 11.98C40.62 13.73 42.03 15.14 43.77 15.14C44.15 15.14 44.49 15.06 44.82 14.94L44.82 27.93ZM43.77 31.94C43.19 31.94 42.72 31.46 42.72 30.88C42.72 30.31 43.19 29.84 43.77 29.84C44.36 29.84 44.82 30.31 44.82 30.88C44.82 31.46 44.36 31.94 43.77 31.94ZM3.87 31.94C3.29 31.94 2.82 31.46 2.82 30.88C2.82 30.31 3.29 29.84 3.87 29.84C4.46 29.84 4.92 30.31 4.92 30.88C4.92 31.46 4.46 31.94 3.87 31.94ZM3.87 10.93C4.46 10.93 4.92 11.4 4.92 11.98C4.92 12.57 4.46 13.03 3.87 13.03C3.29 13.03 2.82 12.57 2.82 11.98C2.82 11.4 3.29 10.93 3.87 10.93ZM44.82 8.83L2.82 8.83C1.67 8.83 0.72 9.78 0.72 10.93L0.72 31.94C0.72 33.09 1.67 34.03 2.82 34.03L44.82 34.03C45.98 34.03 46.92 33.09 46.92 31.94L46.92 10.93C46.92 9.78 45.98 8.83 44.82 8.83ZM5.97 6.73L41.67 6.73C42.26 6.73 42.72 6.26 42.72 5.69C42.72 5.1 42.26 4.63 41.67 4.63L5.97 4.63C5.39 4.63 4.92 5.1 4.92 5.69C4.92 6.26 5.39 6.73 5.97 6.73ZM10.17 2.53L37.47 2.53C38.06 2.53 38.52 2.06 38.52 1.49C38.52 0.9 38.06 0.43 37.47 0.43L10.17 0.43C9.59 0.43 9.12 0.9 9.12 1.49C9.12 2.06 9.59 2.53 10.17 2.53Z" />
			</g>
		</g>
	</g>
</svg>